<?xml version="1.0" standalone="no"?><!DOCTYPE svg PUBLIC "-//W3C//DTD SVG 1.1//EN" "http://www.w3.org/Graphics/SVG/1.1/DTD/svg11.dtd"><svg t="1783164059755" class="icon" viewBox="0 0 1024 1024" version="1.1" xmlns="http://www.w3.org/2000/svg" p-id="17513" xmlns:xlink="http://www.w3.org/1999/xlink" width="200" height="200"><path fill="#3C3C3C" d="M926.4 637.7H299c-17.7 0-32-14.3-32-32s14.3-32 32-32h627.4c17.7 0 32 14.3 32 32s-14.3 32-32 32z" p-id="17514"></path><path fill="#3C3C3C" d="M529.6 872.2c-8.2 0-16.4-3.1-22.6-9.4L281.2 637c-12.5-12.5-12.5-32.8 0-45.3s32.8-12.5 45.3 0l225.8 225.8c12.5 12.5 12.5 32.8 0 45.3-6.3 6.3-14.5 9.4-22.7 9.4z" p-id="17515"></path><path fill="#3C3C3C" d="M304.1 628.8c-8.2 0-16.4-3.1-22.6-9.4-12.5-12.5-12.5-32.8 0-45.3l225.8-225.8c12.5-12.5 32.8-12.5 45.3 0s12.5 32.8 0 45.3L326.7 619.4c-6.2 6.3-14.4 9.4-22.6 9.4z" p-id="17516"></path><path fill="#3C3C3C" d="M447.6 958.3H229.1c-89.3 0-162-72.7-162-162V228.2c0-89.3 72.7-162 162-162h568.1c89.3 0 162 72.7 162 162v208.1c0 17.7-14.3 32-32 32s-32-14.3-32-32V228.2c0-54-44-98-98-98H229.1c-54 0-98 44-98 98v568.1c0 54 44 98 98 98h218.5c17.7 0 32 14.3 32 32s-14.3 32-32 32z" p-id="17517"></path></svg>