<?xml version="1.0" standalone="no"?>
<svg xmlns="http://www.w3.org/2000/svg" xmlns:xlink="http://www.w3.org/1999/xlink" viewBox="66 -20 1060 1060" width="200" height="200"><g transform="rotate(118.938 596.5 509.5)"><path d="M930.15794542 878.30426386a108.83725766 128.03604433 45 1 0-153.91912638-153.91912638 108.83725766 128.03604433 45 1 0 153.91912638 153.91912638Z" fill="#f06868" p-id="7228"></path><path d="M519.51211973 141.47262513a104.99750062 128.03604433 57.07 1 0-214.93035448 139.20437209 104.99750062 128.03604433 57.07 1 0 214.93035448-139.20437209Z" fill="#80d6ff" p-id="7229"></path><path d="M630.71276359 849.24742587a111.88258235 142.93165399 45 1 0-158.22586587-158.22586589 111.88258235 142.93165399 45 1 0 158.22586587 158.22586589Z" fill="#fab57a" p-id="7230"></path><path d="M474.7828712 439.20686813a111.88258235 142.93165399 51.71 1 0-224.36968944 177.13292756 111.88258235 142.93165399 51.71 1 0 224.36968944-177.13292756Z" fill="#edf798" p-id="7231"></path><path d="M612.02779497 200.84223619c91.42459055-80.09599332 220.25227746-43.30145708 311.72368064 61.18378882s111.13260518 236.96429903 19.80163883 317.24754188-231.90856155 48.49763196-331.29125734-44.05045562c-79.30018216-119.18433566-91.7054648-254.23806967-0.23406213-334.38087508z" fill="#a3de83" p-id="7232"></path></g></svg>