<?xml version="1.0" standalone="no"?><!DOCTYPE svg PUBLIC "-//W3C//DTD SVG 1.1//EN" "http://www.w3.org/Graphics/SVG/1.1/DTD/svg11.dtd"><svg t="1783176183036" class="icon" viewBox="0 0 1024 1024" version="1.1" xmlns="http://www.w3.org/2000/svg" p-id="6232" xmlns:xlink="http://www.w3.org/1999/xlink" width="200" height="200"><path d="M672 565.333333m-53.333333 0a53.333333 53.333333 0 1 0 106.666666 0 53.333333 53.333333 0 1 0-106.666666 0Z" fill="#0F315B" p-id="6233"></path><path d="M352 565.333333m-53.333333 0a53.333333 53.333333 0 1 0 106.666666 0 53.333333 53.333333 0 1 0-106.666666 0Z" fill="#0F315B" p-id="6234"></path><path d="M469.333333 661.333333h85.333334v42.666667h-85.333334z" fill="#106AC4" p-id="6235"></path><path d="M863.146667 117.76a64 64 0 0 0-69.546667 4.693333l-211.2 158.293334h70.186667l166.613333-124.16a21.333333 21.333333 0 0 1 34.133333 18.986666l-10.88 106.666667h42.666667L896 179.413333a64 64 0 0 0-32.853333-61.653333zM181.546667 282.88L170.666667 175.573333a21.333333 21.333333 0 0 1 34.133333-18.986666l165.12 123.946666 74.453333 2.346667-213.333333-160.426667A64 64 0 0 0 128 179.413333l10.453333 103.466667z" fill="#F4CB1C" p-id="6236"></path><path d="M391.04 277.333333H138.24l3.413333 42.666667H448l-56.96-42.666667zM554.666667 320l56.96-42.666667h-199.253334L469.333333 320h85.333334zM870.4 320l4.266667-42.666667H632.96L576 320h294.4z" fill="#106AC4" p-id="6237"></path><path d="M601.386667 320l56.96-42.666667h-71.253334l-56.746666 42.666667h71.04zM422.613333 320h71.04l-56.746666-42.666667h-71.253334l56.96 42.666667z" fill="#0F315B" p-id="6238"></path><path d="M799.36 853.333333H224.64l-12.16-164.693333H169.386667L184.96 896h654.08l15.573333-204.586667h-43.306666L799.36 853.333333zM206.293333 605.653333H162.986667l5.12 66.773334H211.2l-4.906667-66.773334zM184.533333 312.533333l-43.306666 1.493334 13.653333 184.96H198.4l-13.866667-186.453334zM812.8 671.36h43.306667l4.906666-63.573333h-43.52l-4.693333 63.573333z" fill="#106AC4" p-id="6239"></path><path d="M185.173333 320l-4.266666-42.666667h-42.666667l2.56 33.066667 0.853333 9.6h43.52z" fill="#0F315B" p-id="6240"></path><path d="M199.68 517.546667H156.373333l5.12 68.266666H204.8l-5.12-68.266666zM823.68 525.653333l-4.266667 56.746667h43.52l4.266667-56.746667h-43.52zM886.186667 277.333333l-46.933334 38.826667-13.653333 184.32h43.52l17.066667-223.146667z" fill="#106AC4" p-id="6241"></path><path d="M234.666667 533.333333v-42.666666H176.426667l3.2 42.666666H234.666667zM42.666667 490.666667v42.666666h136.32l-3.2-42.666666H42.666667z" fill="#F4CB1C" p-id="6242"></path><path d="M843.093333 277.333333l-4.266666 42.666667h43.946666l0.853334-9.813333 2.56-32.853334h-43.093334zM197.76 490.666667H154.453333l3.2 42.666666h43.306667l-3.2-42.666666z" fill="#0F315B" p-id="6243"></path><path d="M234.666667 618.666667v-42.666667H182.826667l2.986666 42.666667H234.666667zM42.666667 576v42.666667h142.72l-3.2-42.666667H42.666667z" fill="#F4CB1C" p-id="6244"></path><path d="M204.16 576H160.853333l3.2 42.666667h43.093334l-2.986667-42.666667z" fill="#0F315B" p-id="6245"></path><path d="M42.666667 661.333333v42.666667h149.12l-3.2-42.666667H42.666667zM234.666667 704v-42.666667H189.013333l3.2 42.666667H234.666667z" fill="#F4CB1C" p-id="6246"></path><path d="M210.346667 661.333333H167.253333l3.2 42.666667h43.093334l-3.2-42.666667z" fill="#0F315B" p-id="6247"></path><path d="M981.333333 533.333333v-42.666666h-132.693333l-3.413333 42.666666H981.333333zM789.333333 490.666667v42.666666h55.04l3.2-42.666666H789.333333z" fill="#F4CB1C" p-id="6248"></path><path d="M869.973333 490.666667h-43.733333l-3.2 42.666666h43.52l3.413333-42.666666z" fill="#0F315B" p-id="6249"></path><path d="M789.333333 576v42.666667h48.64l3.2-42.666667H789.333333zM981.333333 618.666667v-42.666667h-139.306666l-3.2 42.666667H981.333333z" fill="#F4CB1C" p-id="6250"></path><path d="M816.64 618.666667h43.52l3.2-42.666667h-43.52l-3.2 42.666667z" fill="#0F315B" p-id="6251"></path><path d="M981.333333 704v-42.666667h-145.706666l-3.413334 42.666667H981.333333zM789.333333 661.333333v42.666667h42.453334l3.2-42.666667H789.333333z" fill="#F4CB1C" p-id="6252"></path><path d="M810.453333 704h43.093334l3.413333-42.666667h-43.306667l-3.2 42.666667z" fill="#0F315B" p-id="6253"></path></svg>