<?xml version="1.0" standalone="no"?><!DOCTYPE svg PUBLIC "-//W3C//DTD SVG 1.1//EN" "http://www.w3.org/Graphics/SVG/1.1/DTD/svg11.dtd"><svg t="1784103539606" class="icon" viewBox="0 0 1024 1024" version="1.1" xmlns="http://www.w3.org/2000/svg" p-id="6109" xmlns:xlink="http://www.w3.org/1999/xlink" width="200" height="200"><path d="M673.41 900.33c-7.59 0-15.05-3.6-19.68-10.33l-42.91-62.37a23.885 23.885 0 0 1-2.93-21.22c2.43-7.14 8.1-12.7 15.27-15.02 11.04-3.56 27.88-10.96 42.74-17.49l8.11-3.57c12.13-5.23 26.14 0.26 31.41 12.32 5.27 12.07-0.23 26.14-12.31 31.42l-8.01 3.51c-5.97 2.62-12.01 5.28-17.92 7.8l25.85 37.57c7.47 10.86 4.72 25.72-6.13 33.17a23.636 23.636 0 0 1-13.49 4.21zM789.67 777.3c-9.37 0-18.25-5.54-22.05-14.74-5.03-12.18 0.75-26.12 12.93-31.15 62.43-25.83 86.74-51.86 92.91-99.51 7.71-59.56-33.94-79.1-38.72-81.13-8.93-3.81-14.91-12.74-14.76-22.43 0.02-0.98 0.19-105.21-77.41-153.06-76.16-46.97-183.02-40.94-184.04-40.83-8.1 0.56-16.1-3.21-20.88-9.88L460.37 217.1l-51.35 186.51c-3.49 12.7-16.68 20.14-29.33 16.66-12.7-3.49-20.17-16.63-16.67-29.34l64.59-234.59a23.872 23.872 0 0 1 18.79-17.15c9-1.63 18.21 2.1 23.58 9.55l99 137.66c34.3-0.43 125.87 3.39 198.64 48.27 81.72 50.38 96.76 143.04 99.49 179.38 27.78 17.66 62.23 57.81 53.67 123.95-10.48 80.81-64.83 113.83-122 137.46a23.319 23.319 0 0 1-9.11 1.84zM231.78 878.22c-2.35 0-4.73-0.34-7.09-1.07-12.58-3.91-19.61-17.29-15.69-29.87l118.13-379.93c3.91-12.56 17.25-19.57 29.86-15.7 12.58 3.91 19.61 17.29 15.69 29.87L254.55 861.44c-3.18 10.22-12.6 16.78-22.77 16.78z" fill="#040000" p-id="6110"></path><path d="M817.29 930.91c-5.79 0-11.61-2.1-16.2-6.35l-669.17-619.4c-9.67-8.95-10.25-24.04-1.3-33.7 8.95-9.66 24.04-10.25 33.71-1.3l669.17 619.4c9.67 8.95 10.25 24.04 1.3 33.7a23.809 23.809 0 0 1-17.51 7.65z" fill="#040000" p-id="6111"></path></svg>