<?xml version="1.0" standalone="no"?><!DOCTYPE svg PUBLIC "-//W3C//DTD SVG 1.1//EN" "http://www.w3.org/Graphics/SVG/1.1/DTD/svg11.dtd"><svg t="1783165034584" class="icon" viewBox="0 0 1048 1024" version="1.1" xmlns="http://www.w3.org/2000/svg" p-id="22380" xmlns:xlink="http://www.w3.org/1999/xlink" width="204.6875" height="200"><path fill="#3C3C3C" d="M1008.556066 169.211803H233.001967c-21.487213 0-39.617049 17.458361-39.617049 39.617049v775.554099c0 21.487213 17.458361 39.617049 39.617049 39.617049h775.554099c21.487213 0 39.617049-17.458361 39.617049-39.617049V208.828852c0-21.487213-17.458361-39.617049-39.617049-39.617049z m-282.691148 77.891148v221.586885H516.36459v-221.586885h209.500328z m245.76 700.348852H269.933115V246.431475h169.211803v259.189509c0 21.487213 17.458361 39.617049 39.617049 39.617049h283.362623c21.487213 0 39.617049-17.458361 39.617049-39.617049V246.431475h169.211804v701.020328z" p-id="22381"></path><path fill="#3C3C3C" d="M76.548197 76.548197h766.824918v67.819016h76.548196V54.389508c0-30.216393-24.84459-54.389508-55.060983-54.389508H54.389508C24.173115 0 0 24.173115 0 54.389508v777.568525c0 30.216393 24.173115 54.389508 54.389508 54.389508h114.15082v-76.548197H76.548197V76.548197z" p-id="22382"></path><path fill="#3C3C3C" d="M582.16918 277.99082h76.548197v165.854426H582.16918V277.99082z" p-id="22383"></path></svg>