<?xml version="1.0" standalone="no"?><!DOCTYPE svg PUBLIC "-//W3C//DTD SVG 1.1//EN" "http://www.w3.org/Graphics/SVG/1.1/DTD/svg11.dtd"><svg t="1783164283845" class="icon" viewBox="0 0 1024 1024" version="1.1" xmlns="http://www.w3.org/2000/svg" p-id="18601" xmlns:xlink="http://www.w3.org/1999/xlink" width="200" height="200"><g transform="translate(512,512) scale(1.08) translate(-512,-512)"><path d="M788.476824 191.775263c23.472493 0 42.65002 19.077643 42.65002 42.65002v554.050722c0 23.472493-19.077643 42.65002-42.65002 42.650019H234.426102c-23.472493 0-42.65002-19.077643-42.650019-42.650019V234.425283c0-23.472493 19.077643-42.65002 42.650019-42.65002h554.050722m0-42.650019H234.426102c-47.044869 0-85.200156 38.155287-85.200156 85.200156v554.050722c0 47.044869 38.155287 85.200156 85.200156 85.200156h554.050722c47.044869 0 85.200156-38.155287 85.200156-85.200156V234.425283c0-47.144752-38.155287-85.300039-85.200156-85.300039z" p-id="18602"></path></g><path d="M298.35119 703.175966c-11.786188 0-21.275068-9.588763-21.275068-21.275069V532.675771c0-11.786188 9.588763-21.275068 21.275068-21.275069 11.786188 0 21.275068 9.588763 21.275068 21.275069v149.125243c0 11.786188-9.48888 21.374951-21.275068 21.374952zM511.401522 703.175966c-11.786188 0-21.275068-9.588763-21.275069-21.275069V383.550527c0-11.786188 9.588763-21.275068 21.275069-21.275069 11.786188 0 21.275068 9.588763 21.275068 21.275069v298.35037c0.099883 11.686305-9.48888 21.275068-21.275068 21.275069zM724.551736 703.175966c-11.786188 0-21.275068-9.588763-21.275068-21.275069V468.750683c0-11.786188 9.588763-21.275068 21.275068-21.275068 11.786188 0 21.275068 9.588763 21.275069 21.275068v213.050331c0 11.786188-9.588763 21.374951-21.275069 21.374952z" p-id="18603"></path></svg>
