<?xml version="1.0" standalone="no"?><!DOCTYPE svg PUBLIC "-//W3C//DTD SVG 1.1//EN" "http://www.w3.org/Graphics/SVG/1.1/DTD/svg11.dtd"><svg t="1784539818210" class="icon" viewBox="0 0 1024 1024" version="1.1" xmlns="http://www.w3.org/2000/svg" p-id="8700" xmlns:xlink="http://www.w3.org/1999/xlink" width="200" height="200"><path d="M327.758769 570.761846v1.575385a20.164923 20.164923 0 0 1-2.914461-1.575385zM592.423385 904.349538a31.507692 31.507692 0 0 1-31.507693 31.507693h-226.855384a69.395692 69.395692 0 0 1-69.316923-69.316923V633.777231h63.015384V866.461538a6.301538 6.301538 0 0 0 6.301539 6.301539h226.855384a31.507692 31.507692 0 0 1 31.507693 31.586461zM932.155077 331.460923v-1.102769a21.897846 21.897846 0 0 0-1.339077-4.411077 22.685538 22.685538 0 0 0-1.024-2.441846 18.668308 18.668308 0 0 0-1.496615-2.756923 21.504 21.504 0 0 0-1.654154-2.363077 15.753846 15.753846 0 0 0-1.811693-2.205539 8.428308 8.428308 0 0 0-1.102769-1.260307L754.451692 127.054769a31.507692 31.507692 0 0 0-23.630769-10.397538H334.060308a69.395692 69.395692 0 0 0-69.316923 69.316923v187.628308h63.015384V185.974154a6.301538 6.301538 0 0 1 6.301539-6.301539h346.584615v157.538462a31.507692 31.507692 0 0 0 31.507692 31.507692h157.538462v138.633846a31.507692 31.507692 0 0 0 63.015385 0v-170.141538a27.884308 27.884308 0 0 0-0.551385-5.750154z m-188.494769-25.757538V209.289846l86.646154 96.413539zM970.515692 757.838769a33.713231 33.713231 0 0 1-0.630154 6.380308c0 1.024-0.472615 2.048-0.787692 2.993231a31.507692 31.507692 0 0 1-2.205538 5.277538 29.853538 29.853538 0 0 1-1.575385 2.678154 27.017846 27.017846 0 0 1-1.890461 2.599385 28.750769 28.750769 0 0 1-2.12677 2.363077l-94.523077 94.523076a31.507692 31.507692 0 0 1-44.583384-44.583384l40.723692-40.723692H636.534154a31.507692 31.507692 0 0 1 0-63.015385h226.382769L822.193231 685.292308a31.507692 31.507692 0 0 1 44.268307-44.268308l94.523077 94.523077a28.750769 28.750769 0 0 1 2.12677 2.363077 27.017846 27.017846 0 0 1 1.890461 2.599384 29.853538 29.853538 0 0 1 1.575385 2.678154 31.507692 31.507692 0 0 1 2.284307 5.12c0 0.945231 0.551385 1.969231 0.787693 2.993231a33.713231 33.713231 0 0 1 0.866461 6.537846z" fill="#7a7a7a" p-id="8701"></path><path d="M327.758769 570.761846v1.575385a20.164923 20.164923 0 0 1-2.914461-1.575385z" fill="#7a7a7a" p-id="8702"></path><path d="M324.844308 570.761846a20.164923 20.164923 0 0 0 2.914461 1.575385v-1.575385z m0 0a20.164923 20.164923 0 0 0 2.914461 1.575385v-1.575385zM242.609231 413.538462V543.507692a102.4 102.4 0 0 1-2.914462 27.175385v0.472615A53.563077 53.563077 0 0 1 229.218462 590.769231a52.775385 52.775385 0 0 1-13.548308 11.815384 22.843077 22.843077 0 0 1-2.599385 1.575385 63.015385 63.015385 0 0 1-18.904615 6.616615 102.4 102.4 0 0 1-19.377231 1.654154 83.101538 83.101538 0 0 1-30.562461-5.198769 80.580923 80.580923 0 0 1-9.767385-4.647385 61.44 61.44 0 0 1-10.24-7.08923 63.803077 63.803077 0 0 1-12.288-15.044923 3.229538 3.229538 0 0 1-0.551385-0.866462 55.138462 55.138462 0 0 1-6.695384-15.202462l-5.12-19.928615h38.281846a102.4 102.4 0 0 0 3.387077 14.178462 21.504 21.504 0 0 0 2.205538 4.726153 27.411692 27.411692 0 0 0 7.876923 7.876924 43.480615 43.480615 0 0 0 23.63077 5.671384 39.384615 39.384615 0 0 0 16.699076-2.756923 17.565538 17.565538 0 0 0 5.041231-3.150769 18.195692 18.195692 0 0 0 5.198769-6.852923 44.819692 44.819692 0 0 0 3.780924-13.312 154.860308 154.860308 0 0 0 0.708923-16.305231V413.538462z" fill="#7a7a7a" p-id="8703"></path><path d="M432.600615 554.692923a71.364923 71.364923 0 0 1-2.599384 15.753846 53.563077 53.563077 0 0 1-4.647385 11.421539 45.449846 45.449846 0 0 1-15.123692 17.250461 50.727385 50.727385 0 0 1-5.750154 3.150769 60.022154 60.022154 0 0 1-14.887385 4.883693 161.004308 161.004308 0 0 1-24.49723 2.599384h-23.63077a135.404308 135.404308 0 0 1-13.627077-1.339077 73.649231 73.649231 0 0 1-7.876923-1.496615 54.035692 54.035692 0 0 1-11.972923-4.411077 57.501538 57.501538 0 0 1-6.774154-3.702154 56.398769 56.398769 0 0 1-16.856615-17.32923 57.580308 57.580308 0 0 1-5.435077-10.476308 59.076923 59.076923 0 0 1-3.229538-14.020923l-2.048-12.839385h38.754461c0 3.465846 0.945231 7.089231 1.654154 10.791385a25.6 25.6 0 0 0 5.671385 11.185231 25.757538 25.757538 0 0 0 8.428307 6.222769 40.093538 40.093538 0 0 0 6.380308 2.284307 87.512615 87.512615 0 0 0 25.915077 2.048 78.769231 78.769231 0 0 0 19.771077-2.99323 25.757538 25.757538 0 0 0 6.616615-2.914462 15.753846 15.753846 0 0 0 5.12-4.962461 22.134154 22.134154 0 0 0 2.914462-12.681847 18.904615 18.904615 0 0 0-2.284308-8.822153 18.353231 18.353231 0 0 0-6.222769-6.065231 48.836923 48.836923 0 0 0-11.264-4.568616c-4.726154-1.339077-11.579077-2.835692-20.637539-4.647384l-26.072615-5.198769c-7.876923-1.575385-15.753846-3.387077-22.685538-5.356308a50.254769 50.254769 0 0 1-17.014154-7.876923 35.052308 35.052308 0 0 1-10.082462-11.657846 47.261538 47.261538 0 0 1-4.568615-12.996923 67.505231 67.505231 0 0 1-0.866462-14.099693 54.193231 54.193231 0 0 1 9.846154-31.507692c0.945231-1.260308 1.969231-2.441846 2.914462-3.544615a55.611077 55.611077 0 0 1 16.620307-13.154462 91.608615 91.608615 0 0 1 22.370462-7.876923l3.465846-0.551385a145.250462 145.250462 0 0 1 23.630769-1.732923 126.030769 126.030769 0 0 1 29.538462 3.308308 62.385231 62.385231 0 0 1 21.346461 9.058462 64.354462 64.354462 0 0 1 12.130462 10.712615c1.260308 1.339077 2.441846 2.835692 3.623385 4.332308a33.476923 33.476923 0 0 1 7.876923 16.384l1.811692 12.681846h-38.518154a47.261538 47.261538 0 0 0-4.411077-10.633846 16.384 16.384 0 0 0-6.695384-6.144 40.251077 40.251077 0 0 0-12.445539-3.780923 138.555077 138.555077 0 0 0-15.753846-1.575385 85.307077 85.307077 0 0 0-21.976615 2.205538h-0.787693a27.648 27.648 0 0 0-13.705846 7.089231 17.408 17.408 0 0 0-4.804923 10.082462 15.753846 15.753846 0 0 0 1.339077 9.058461 15.123692 15.123692 0 0 0 6.144 7.089231 49.624615 49.624615 0 0 0 11.027692 4.017231l2.126769 0.551384c6.065231 1.496615 11.421538 2.599385 15.753847 3.465847l21.740307 3.465846a181.169231 181.169231 0 0 1 24.418462 5.907692A74.279385 74.279385 0 0 1 413.617231 512a47.734154 47.734154 0 0 1 14.651077 17.014154 51.042462 51.042462 0 0 1 4.332307 25.678769zM639.369846 485.927385a90.269538 90.269538 0 0 0-11.027692-28.199385 99.170462 99.170462 0 0 0-16.226462-21.110154c-1.181538-1.260308-2.441846-2.363077-3.702154-3.465846a81.526154 81.526154 0 0 0-26.230153-15.044923 91.293538 91.293538 0 0 0-30.79877-5.12 86.646154 86.646154 0 0 0-32.137846 6.459077 95.547077 95.547077 0 0 0-25.127384 15.753846l-1.811693 1.654154a78.769231 78.769231 0 0 0-15.753846 18.510769 102.951385 102.951385 0 0 0-10.318769 24.576 129.339077 129.339077 0 0 0-4.174769 33.161846 132.804923 132.804923 0 0 0 2.048 27.332923A86.646154 86.646154 0 0 0 472.615385 565.169231c1.024 1.890462 2.126769 3.702154 3.308307 5.592615a110.276923 110.276923 0 0 0 14.966154 18.116923 72.861538 72.861538 0 0 0 18.589539 13.390769 69.395692 69.395692 0 0 0 7.876923 3.544616 108.307692 108.307692 0 0 0 63.960615 1.024 77.745231 77.745231 0 0 0 11.500308-4.568616 70.262154 70.262154 0 0 0 12.839384-7.876923 83.101538 83.101538 0 0 0 17.723077-17.959384 67.505231 67.505231 0 0 0 3.702154-5.828923 111.616 111.616 0 0 0 8.585846-20.637539 137.688615 137.688615 0 0 0 5.513846-37.257846 134.459077 134.459077 0 0 0-1.811692-26.781538zM569.895385 573.44a56.477538 56.477538 0 0 1-21.425231 2.835692 51.751385 51.751385 0 0 1-21.110154-5.513846l-1.890462-0.945231a43.874462 43.874462 0 0 1-16.699076-15.753846 58.998154 58.998154 0 0 1-7.876924-20.873846 127.448615 127.448615 0 0 1-2.205538-22.764308 141.154462 141.154462 0 0 1 1.024-18.432 57.422769 57.422769 0 0 1 19.219692-35.052307 56.162462 56.162462 0 0 1 15.753846-9.058462 47.261538 47.261538 0 0 1 18.904616-2.756923 44.898462 44.898462 0 0 1 20.48 5.435077 55.138462 55.138462 0 0 1 15.123692 12.445538 66.244923 66.244923 0 0 1 10.712616 18.825847 85.307077 85.307077 0 0 1 4.647384 28.041846 122.249846 122.249846 0 0 1-2.835692 26.624 46.788923 46.788923 0 0 1-11.894154 23.630769 50.963692 50.963692 0 0 1-13.390769 10.24 37.730462 37.730462 0 0 1-6.537846 3.072zM826.525538 413.459692v195.190154h-36.942769l-15.990154-24.654769-31.507692-48.364308-35.209846-54.114461v127.606154h-35.052308V413.459692h36.470154l15.202462 23.079385 18.589538 28.356923 31.507692 47.812923 15.990154 24.260923V413.459692h36.942769z" fill="#7a7a7a" p-id="8704"></path></svg>