<?xml version="1.0" standalone="no"?><!DOCTYPE svg PUBLIC "-//W3C//DTD SVG 1.1//EN" "http://www.w3.org/Graphics/SVG/1.1/DTD/svg11.dtd"><svg t="1783164044923" class="icon" viewBox="0 0 1024 1024" version="1.1" xmlns="http://www.w3.org/2000/svg" p-id="16493" xmlns:xlink="http://www.w3.org/1999/xlink" width="200" height="200"><path d="M140.82998676543212 938.7192663241431h744.8649919537726c27.774627235207902 0 50.499322120301564-22.72469488509366 50.499322120301564-50.499320739460735v-176.74762534979425c0-15.149797050342714-10.099864700228474-25.249660369730368-25.249660369730368-25.249660369730368s-25.249660369730368 10.099864700228474-25.24966175057119 25.249660369730368v176.74762534979425H140.82998676543212V143.35495225006883h744.8649919537726v156.5478973301781c0 15.149797050342714 10.099864700228474 25.249660369730368 25.24966175057119 25.249660369730368s25.249660369730368-10.099864700228474 25.249660369730368-25.249660369730368v-156.5478973301781c0-27.774627235207902-22.72469488509366-50.499322120301564-50.499322120301564-50.499320739460735H140.82998676543212c-27.774627235207902 0-50.499322120301564 22.72469488509366-50.499322120301564 50.499320739460735v744.8649933346134c0 27.774627235207902 20.19972801961613 50.499322120301564 50.499322120301564 50.499320739460735z" fill="" p-id="16494"></path><path d="M691.2725908344311 734.1970151199814c5.049932350114237 5.049932350114237 12.624830184865184 7.574897834750945 17.674762534979426 7.574897834750945s12.624830184865184-2.524965484636708 17.674762534979426-7.574897834750945l201.99728710036538-201.99728710036538c2.524965484636708-2.524965484636708 5.049932350114237-5.049932350114237 5.049932350114237-7.574897834750945 2.524965484636708-5.049932350114237 2.524965484636708-12.624830184865184 0-20.19972801961613-2.524965484636708-2.524965484636708-2.524965484636708-5.049932350114237-5.049932350114237-7.574899215591769l-201.99728710036538-201.9972857195246c-10.099864700228474-10.099864700228474-25.249660369730368-10.099864700228474-35.34952506995885 0s-10.099864700228474 25.249660369730368 0 35.34952506995885l159.07286281481484 159.07286281481484H375.6518320702789c-15.149797050342714 0-25.249660369730368 10.099864700228474-25.249660369730368 25.249660369730368s10.099864700228474 25.249660369730368 25.249660369730368 25.24966175057119h474.6936215789669l-159.07286281481484 159.07286281481484c-10.099864700228474 10.099864700228474-10.099864700228474 25.249660369730368 0 35.34952506995885z" fill="" p-id="16495"></path></svg>