<svg width="1024" height="1024" viewBox="0 0 1024 1024" xmlns="http://www.w3.org/2000/svg">
  <defs>
    <linearGradient id="bg" x1="0" y1="0" x2="0" y2="1">
      <stop offset="0" stop-color="#FFFFFF"/>
      <stop offset="1" stop-color="#F1F0EE"/>
    </linearGradient>
    <filter id="shadow" x="-20%" y="-20%" width="140%" height="140%">
      <feDropShadow dx="0" dy="10" stdDeviation="18" flood-color="#000000" flood-opacity="0.10"/>
    </filter>
  </defs>

  <!-- rounded-square base -->
  <rect x="64" y="64" width="896" height="896" rx="210" fill="url(#bg)" filter="url(#shadow)"/>

  <!-- timeline guide -->
  <line x1="300" y1="288" x2="300" y2="736" stroke="#D2D0CD" stroke-width="6" stroke-linecap="round"/>

  <!-- tick dots -->
  <circle cx="300" cy="350" r="14" fill="#2783DE"/>
  <circle cx="300" cy="470" r="14" fill="#46A171"/>
  <circle cx="300" cy="590" r="14" fill="#D5803B"/>
  <circle cx="300" cy="690" r="14" fill="#9B6BD6"/>

  <!-- time blocks (rounded rect + darker left accent bar) -->
  <g>
    <rect x="356" y="300" width="404" height="116" rx="26" fill="#2783DE"/>
    <path d="M356 326 a26 26 0 0 1 26 -26 h4 v116 h-4 a26 26 0 0 1 -26 -26 Z" fill="#1B69B8"/>
  </g>
  <g>
    <rect x="356" y="432" width="320" height="96" rx="24" fill="#46A171"/>
    <path d="M356 456 a24 24 0 0 1 24 -24 h4 v96 h-4 a24 24 0 0 1 -24 -24 Z" fill="#2F7D55"/>
  </g>
  <g>
    <rect x="356" y="544" width="372" height="96" rx="24" fill="#D5803B"/>
    <path d="M356 568 a24 24 0 0 1 24 -24 h4 v96 h-4 a24 24 0 0 1 -24 -24 Z" fill="#AD6222"/>
  </g>
  <g>
    <rect x="356" y="656" width="288" height="88" rx="22" fill="#9B6BD6"/>
    <path d="M356 678 a22 22 0 0 1 22 -22 h4 v88 h-4 a22 22 0 0 1 -22 -22 Z" fill="#7A49B8"/>
  </g>
</svg>
