<?xml version="1.0" standalone="no"?><!DOCTYPE svg PUBLIC "-//W3C//DTD SVG 1.1//EN" "http://www.w3.org/Graphics/SVG/1.1/DTD/svg11.dtd"><svg t="1784539834685" class="icon" viewBox="0 0 1024 1024" version="1.1" xmlns="http://www.w3.org/2000/svg" p-id="9402" xmlns:xlink="http://www.w3.org/1999/xlink" width="200" height="200"><path d="M327.601231 557.371077V559.261538a32.531692 32.531692 0 0 1-2.914462-1.575384zM592.265846 890.958769a31.507692 31.507692 0 0 1-31.507692 31.507693h-226.855385a69.395692 69.395692 0 0 1-69.316923-69.316924V620.386462h63.015385v232.763076a6.301538 6.301538 0 0 0 6.301538 6.301539h226.855385a31.507692 31.507692 0 0 1 31.507692 31.507692zM931.997538 318.070154v-1.102769a29.459692 29.459692 0 0 0-1.339076-4.489847c0-0.787692-0.630154-1.575385-1.024-2.363076a18.668308 18.668308 0 0 0-1.496616-2.756924 16.620308 16.620308 0 0 0-1.654154-2.441846 39.384615 39.384615 0 0 0-2.914461-3.387077L754.294154 113.664a31.507692 31.507692 0 0 0-23.630769-10.397538H333.902769a69.316923 69.316923 0 0 0-69.316923 69.316923v187.628307h63.015385V172.583385a6.301538 6.301538 0 0 1 6.301538-6.301539h346.584616v157.538462a31.507692 31.507692 0 0 0 31.507692 31.507692h157.538461v138.633846a31.507692 31.507692 0 0 0 63.015385 0v-170.141538a27.884308 27.884308 0 0 0-0.551385-5.750154z m-188.494769-25.757539V195.820308l86.646154 96.492307zM970.358154 744.448a31.507692 31.507692 0 0 1-31.507692 31.507692H712.388923l40.802462 40.723693a31.507692 31.507692 0 0 1-22.291693 53.799384 31.507692 31.507692 0 0 1-21.976615-9.294769L615.187692 767.763692a26.702769 26.702769 0 0 1-3.229538-3.465846 27.017846 27.017846 0 0 1-1.890462-2.599384 29.853538 29.853538 0 0 1-1.575384-2.678154c-0.551385-1.024-1.024-2.048-1.496616-3.15077v-0.708923a23.630769 23.630769 0 0 1-0.787692-2.520615v-0.945231c0-0.945231-0.393846-1.811692-0.551385-2.835692a27.017846 27.017846 0 0 1 0-4.411077 31.035077 31.035077 0 0 1 3.623385-14.651077 29.853538 29.853538 0 0 1 1.575385-2.678154 27.017846 27.017846 0 0 1 1.890461-2.599384 28.750769 28.750769 0 0 1 2.126769-2.363077l94.523077-94.523077a31.035077 31.035077 0 0 1 11.264-7.246769 32.137846 32.137846 0 0 1 22.055385 0 31.035077 31.035077 0 0 1 11.264 7.246769 31.507692 31.507692 0 0 1 0 44.504615l-40.802462 40.802462h226.461539a31.507692 31.507692 0 0 1 30.72 31.507692z" fill="#7a7a7a" p-id="9403"></path><path d="M324.686769 557.371077h2.914462V559.261538a32.531692 32.531692 0 0 1-2.914462-1.890461z" fill="#7a7a7a" p-id="9404"></path><path d="M324.686769 557.371077a32.531692 32.531692 0 0 0 2.914462 1.575385v-1.575385z m0 0a32.531692 32.531692 0 0 0 2.914462 1.575385v-1.575385z" fill="#7a7a7a" p-id="9405"></path><path d="M242.451692 400.147692v129.969231a102.4 102.4 0 0 1-2.914461 27.254154v0.472615a55.847385 55.847385 0 0 1-23.630769 31.035077A16.856615 16.856615 0 0 1 212.676923 590.769231a64.905846 64.905846 0 0 1-18.904615 6.537846 91.608615 91.608615 0 0 1-19.377231 1.654154 84.519385 84.519385 0 0 1-30.562462-5.12 80.580923 80.580923 0 0 1-9.767384-4.647385 52.145231 52.145231 0 0 1-10.24-7.168 62.227692 62.227692 0 0 1-12.288-15.044923 3.229538 3.229538 0 0 1-0.551385-0.866461 55.138462 55.138462 0 0 1-6.695384-15.123693l-5.12-20.007384h38.203076a108.780308 108.780308 0 0 0 3.465847 14.178461 21.504 21.504 0 0 0 2.205538 4.726154 27.726769 27.726769 0 0 0 7.876923 7.876923 43.480615 43.480615 0 0 0 23.630769 5.671385 38.203077 38.203077 0 0 0 16.699077-2.756923 16.935385 16.935385 0 0 0 4.962462-3.072 17.644308 17.644308 0 0 0 5.277538-6.852923 45.292308 45.292308 0 0 0 3.780923-13.39077 152.182154 152.182154 0 0 0 0.708923-16.226461V400.147692zM432.443077 541.223385a72.152615 72.152615 0 0 1-2.599385 16.147692 54.665846 54.665846 0 0 1-4.411077 11.027692 45.449846 45.449846 0 0 1-15.123692 17.250462 54.587077 54.587077 0 0 1-5.986461 3.229538 58.131692 58.131692 0 0 1-14.651077 4.804923 160.846769 160.846769 0 0 1-24.497231 2.678154h-23.630769a135.404308 135.404308 0 0 1-13.627077-1.339077 73.649231 73.649231 0 0 1-7.876923-1.496615 52.617846 52.617846 0 0 1-11.972923-4.411077 58.368 58.368 0 0 1-6.774154-3.780923 54.665846 54.665846 0 0 1-16.856616-17.329231 56.556308 56.556308 0 0 1-5.356307-10.397538 55.138462 55.138462 0 0 1-3.938462-14.099693l-2.048-12.918154h38.754462c0 3.544615 0.945231 7.168 1.654153 10.870154a25.993846 25.993846 0 0 0 5.671385 11.185231 20.322462 20.322462 0 0 0 5.513846 4.647385 32.531692 32.531692 0 0 0 2.914462 1.575384 40.251077 40.251077 0 0 0 6.380307 2.205539 84.992 84.992 0 0 0 25.915077 2.048 78.769231 78.769231 0 0 0 19.771077-2.914462 25.757538 25.757538 0 0 0 6.616616-2.914461 15.753846 15.753846 0 0 0 5.12-5.041231 21.897846 21.897846 0 0 0 2.914461-12.603077 19.219692 19.219692 0 0 0-2.284307-8.900923 17.801846 17.801846 0 0 0-6.301539-5.986462 43.638154 43.638154 0 0 0-11.185231-4.568615c-4.726154-1.339077-11.579077-2.914462-20.637538-4.647385l-26.072616-5.198769q-12.445538-2.520615-22.685538-5.435077a47.261538 47.261538 0 0 1-17.014154-7.876923 34.816 34.816 0 0 1-10.082461-11.579077 47.261538 47.261538 0 0 1-4.804923-12.839384 63.015385 63.015385 0 0 1-0.866462-14.178462 54.193231 54.193231 0 0 1 9.846154-31.507692l2.835692-3.465846a57.501538 57.501538 0 0 1 16.699077-13.233231 88.221538 88.221538 0 0 1 22.370462-7.876923 24.497231 24.497231 0 0 1 3.465846-0.551385 145.250462 145.250462 0 0 1 23.630769-1.732923 130.835692 130.835692 0 0 1 29.538462 3.229539 63.960615 63.960615 0 0 1 21.346461 9.058461 68.214154 68.214154 0 0 1 12.209231 10.791385l3.544615 4.332307a32.925538 32.925538 0 0 1 7.876923 16.305231L427.716923 456.861538h-38.045538a44.032 44.032 0 0 0-4.411077-10.633846 17.092923 17.092923 0 0 0-6.695385-6.222769 40.487385 40.487385 0 0 0-12.445538-3.702154 122.407385 122.407385 0 0 0-15.753847-1.575384 81.683692 81.683692 0 0 0-21.897846 2.205538h-0.787692a27.884308 27.884308 0 0 0-13.705846 7.010462 17.644308 17.644308 0 0 0-4.804923 10.082461 15.753846 15.753846 0 0 0 1.339077 9.137231 15.753846 15.753846 0 0 0 6.144 7.010461 49.624615 49.624615 0 0 0 11.027692 4.017231l2.126769 0.551385c6.065231 1.496615 11.421538 2.678154 15.753846 3.465846l21.740308 3.465846a181.169231 181.169231 0 0 1 24.418462 5.986462 71.443692 71.443692 0 0 1 21.42523 10.870154 47.261538 47.261538 0 0 1 14.651077 16.935384 51.042462 51.042462 0 0 1 4.647385 25.757539zM639.212308 472.615385a91.923692 91.923692 0 0 0-11.027693-28.120616 95.389538 95.389538 0 0 0-16.226461-21.110154c-1.181538-1.260308-2.441846-2.363077-3.702154-3.465846a80.108308 80.108308 0 0 0-26.230154-15.044923 89.403077 89.403077 0 0 0-30.641231-5.277538 86.646154 86.646154 0 0 0-32.137846 6.380307 95.547077 95.547077 0 0 0-25.127384 15.753847l-1.811693 1.732923a79.950769 79.950769 0 0 0-15.753846 18.432 102.951385 102.951385 0 0 0-10.318769 24.576 133.12 133.12 0 0 0-4.253539 33.161846 137.924923 137.924923 0 0 0 2.12677 27.332923A86.646154 86.646154 0 0 0 472.615385 551.778462c1.024 1.890462 2.126769 3.702154 3.308307 5.592615a110.276923 110.276923 0 0 0 14.966154 18.038154 75.539692 75.539692 0 0 0 18.668308 13.469538 68.214154 68.214154 0 0 0 7.876923 3.544616 97.831385 97.831385 0 0 0 34.107077 5.277538 100.903385 100.903385 0 0 0 29.853538-4.253538 79.320615 79.320615 0 0 0 11.34277-4.568616 71.916308 71.916308 0 0 0 12.996923-7.876923 84.598154 84.598154 0 0 0 18.116923-17.801846 67.505231 67.505231 0 0 0 3.702154-5.828923 111.616 111.616 0 0 0 8.585846-20.637539 137.846154 137.846154 0 0 0 5.513846-37.336615 134.459077 134.459077 0 0 0-2.441846-26.781538z m-37.809231 50.884923a47.261538 47.261538 0 0 1-11.894154 23.630769 50.806154 50.806154 0 0 1-13.548308 10.24 43.165538 43.165538 0 0 1-6.222769 2.599385 56.477538 56.477538 0 0 1-21.425231 2.835692 53.326769 53.326769 0 0 1-21.031384-5.435077l-2.048-1.024a43.008 43.008 0 0 1-16.620308-15.753846 59.234462 59.234462 0 0 1-7.876923-20.795077 128.157538 128.157538 0 0 1-2.205538-22.764308 139.736615 139.736615 0 0 1 1.024-18.432 53.956923 53.956923 0 0 1 6.537846-19.613538 55.138462 55.138462 0 0 1 12.681846-15.753846 58.131692 58.131692 0 0 1 15.753846-9.058462 48.915692 48.915692 0 0 1 18.904615-2.756923 45.922462 45.922462 0 0 1 20.48 5.513846 53.720615 53.720615 0 0 1 15.123693 12.445539 65.142154 65.142154 0 0 1 10.712615 18.825846 84.913231 84.913231 0 0 1 4.647385 28.041846 126.582154 126.582154 0 0 1-2.993231 27.096615zM826.368 400.147692v195.032616h-37.021538l-15.911385-24.497231-31.507692-48.364308-35.209847-54.272v127.763693h-35.052307V400.147692h36.470154l15.202461 23.079385 18.589539 28.199385 31.507692 48.04923 15.911385 24.103385V400.147692h37.021538z" fill="#7a7a7a" p-id="9406"></path></svg>