<?xml version="1.0" standalone="no"?><!DOCTYPE svg PUBLIC "-//W3C//DTD SVG 1.1//EN" "http://www.w3.org/Graphics/SVG/1.1/DTD/svg11.dtd"><svg t="1783164913433" class="icon" viewBox="0 0 1024 1024" version="1.1" xmlns="http://www.w3.org/2000/svg" p-id="20462" xmlns:xlink="http://www.w3.org/1999/xlink" width="200" height="200"><path fill="#3C3C3C" d="M805.664 56.32a6.144 6.144 0 0 0-11.552 0l-38.848 107.616a6.144 6.144 0 0 1-3.712 3.712l-107.616 38.848a6.144 6.144 0 0 0 0 11.584l107.616 38.848c1.728 0.64 3.072 1.984 3.712 3.68l38.848 107.616a6.144 6.144 0 0 0 11.552 0l38.848-107.616a6.144 6.144 0 0 1 3.712-3.68l107.616-38.848a6.144 6.144 0 0 0 0-11.584L848.224 167.68a6.144 6.144 0 0 1-3.712-3.712l-38.848-107.584zM530.72 128H160a32 32 0 0 0-32 32v704a32 32 0 0 0 32 32h704a32 32 0 0 0 32-32V448h-64v384H192V192h338.72V128z m51.328 237.664H311.936v-64h270.112v64z m91.84 40.896h64q0 71.84-15.072 131.776-18.88 75.2-58.432 114.816-42.464 42.56-102.528 54.336-30.24 5.92-80.128 4.192v63.744c0 6.4-7.2 10.24-12.48 6.592l-153.824-104.864a8 8 0 0 1 0-13.216l153.792-104.864a8 8 0 0 1 12.512 6.624v81.92q44.064 1.728 67.808-2.944 40.896-8 69.536-36.736 27.104-27.136 41.664-85.184 13.12-52.256 13.12-116.192z" p-id="20463"></path></svg>