<svg xmlns="http://www.w3.org/2000/svg" width="988" height="328" fill="none" viewBox="0 0 988 328"><path fill="#1a1a1a" fill-rule="evenodd" d="m349.25 220-6 3-4.25 4.25-3 7v9.25l3 7 5.25 5.25 8 3h6.25l6-2 6.25-5.25 4-9v-6.25l-3-8-6.25-6.25-5-2Zm187-91-3 1-4.25 4.25-1 7.25 3.25 5.25 4 2h5.25l6.25-5.25v-8.25L543.5 131Zm338-48-.75 1-8.25 1-12 5-7 5L836 103.25l-4 6-6 14-1 9.25-1 .75v12.25l1 .75 1 9.25 6 14 4 6 14.25 13.25 12 6 12 3h16.25l8.75-3 2.75.5v55.25l-3 7-7.5 6.5h-2.25l-2.75 2-11.25-1-4-2-5.5-5.5-2-5-1-11.25-3-6-3.25-3.25-7-3h-10.25l-9 5-5.25 8.25v13.25l1 .75 1 8.25 6 13 6 8 1.5.25 1.5 2.75 12.25 9.25 12 5 8.25 1 .75 1h15.25l.75-1 8.25-1 7.75-4h2.25l14-10 10.25-13.25 6-15v-4.25l1-.75V134.25l-1-.75v-7.25l-8-19L918.5 93l-9-6h-2.25l-7.75-4-8-2Zm4 38.75h7.25l9 4 5.5 6.5 2 7-1 8.25-3 6-6.5 5.5-6 2h-6.25l-9-4-3.5-3.5-4-10v-5.25l4-9 6.5-5.5h2.25ZM730.25 81l-18 6-9 6L693 103.25l-8 14-3 9-1 20.25 4 15 8 14 10.25 10.25 16 9h3.25l3.75 2 21.25 1 12-3 12-6 17.25-17.25 6-12 3-11v-18.25l-3-11-6-12L771.5 90l-12-6-11-3Zm3 38.75h12.25l6 3 7.5 9.5 1 10.25-2 6-6.5 7.5-6 3h-12.25l-6-3-3.5-3.5-4-7v-12.25l2-4 5.5-6.5ZM581.5 81h-51.25l-.75 1h-4.25l-11 3-14 8-9.25 9.25-6 9-4 10-1 8.25-1 .75v18.25l2 4.75v4.25l5 11 6 9 6.25 6.25 14 9 17 5h16.25l10-4 6.25-6.25 3-8v-4.25l-2-7-3-4-5.25-4.25-6-2h-17.25l-8.5-5.5-4-6-1-12.25 2-2.75v-2.25l6.5-6.5 7-3h46.25l8-3 5.25-5.25 2-4 1-10.25-3-8L587.5 84ZM260 121.25l-1 8.25-1 .75v52.25l3 7 7.25 6.25 6 2 10.25-1 1.75-2 3.25-1 5.25-6.25 2-6v-46.25l4-8 6.5-5.5 5-2h7.25l7 3 7.5 8.5 1 9.25 1 .75v38.25l-1 2 5 10 8.25 5.25 4 1 9.25-1 4-2 6.25-6.25 2-4v-45.25l1-.75v-4.25l3-6 5.5-5.5 7-3h7.25l7 3 6.5 6.5 3 7v47.25l3 6 5.25 5.25 4 2 9.25 1 11-5 5.25-7.25 1-4v-48.25l-4-16-6-11L431.5 94l-17-10-12-3h-17.25l-14 4-11 6-3.75 4h-2.25l-7.75-6-10-5h-3.25l-3.75-2h-4.25l-.75-1-21.25 1-10 3-12 7L269 104.25ZM213.25 81l-10 4-4.25 4.25-3 7v87.25l2 5 5.25 6.25 6 3h11.25l6-3 5.25-5.25 2-5V95.25l-3-6L225.5 84l-4-2Zm-148 2L58 90.25l-2 5v9.25l4 8 3.25 3.25 6 3H93.5l1.5 1.5v62.25l3 7 5.25 5.25 7 3h8.25l7-3 5.25-5.25 3-8v-62.25l24.75-.5 5-2 6.25-6.25 3-8v-5.25l-3-8L164.5 84l-7-3H70.25l-2.75 2Zm569-50-7 3-5.25 5.25-3 8V181.5l3 8 5.25 5.25 6 3h10.25l6-3 5.25-5.25 3-8V49.25l-3-8L649.5 36l-7-3Zm-422 0-8 3-5.25 5.25-3 7v8.25l2 6 7.25 7.25 6 2h8.25l5-2 6.25-5.25 3-7V47.25l-2-5L225.5 36l-7-3Zm-101 0-8 3L96 44.25 95 57.5l3 7 4.25 4.25 6 3h11.25l5-2 6.25-6.25 3-7v-7.25L127.5 38l-10-5Z"/></svg>