<?xml version="1.0" standalone="no"?><!DOCTYPE svg PUBLIC "-//W3C//DTD SVG 1.1//EN" "http://www.w3.org/Graphics/SVG/1.1/DTD/svg11.dtd"><svg t="1720000000000" class="icon" viewBox="0 0 1024 1024" version="1.1" xmlns="http://www.w3.org/2000/svg" p-id="1000" xmlns:xlink="http://www.w3.org/1999/xlink" width="200" height="200"><path d="M512 128c-212.1 0-384 171.9-384 384 0 14.7 0.8 29.2 2.4 43.5L70.4 495.5c-12.8-12.8-33.6-12.8-46.4 0s-12.8 33.6 0 46.4l96 96c6.4 6.4 14.8 9.6 23.2 9.6s16.8-3.2 23.2-9.6l96-96c12.8-12.8 12.8-33.6 0-46.4s-33.6-12.8-46.4 0L194.4 507c-1.1-11.1-1.7-22.3-1.7-33.7-1.4-194.3 155.7-352.3 350-353.7 2.1 0 4.3 0 6.4 0 193.4 0 350.4 156.3 351.9 349.6 1.6 194.4-154.2 353.1-348.6 354.7-2.2 0-4.4 0.1-6.6 0.1-17.8 0-32.2 14.4-32.2 32.2s14.4 32.2 32.2 32.2c2.6 0 5.1-0.1 7.7-0.1 231.2-1.9 418.5-190.5 416.5-421.7C898.5 310.2 724.7 128 512 128z" fill="#3C3C3C" p-id="1001"></path></svg>